<svg width="56" height="56" viewBox="0 0 56 56" fill="none" xmlns="http://www.w3.org/2000/svg">
<g clip-path="url(#clip0_7_54)">
<path d="M45.5 22.75C45.5 27.7703 43.8703 32.4078 41.125 36.1703L54.9719 50.0281C56.3391 51.3953 56.3391 53.6156 54.9719 54.9828C53.6047 56.35 51.3844 56.35 50.0172 54.9828L36.1703 41.125C32.4078 43.8812 27.7703 45.5 22.75 45.5C10.1828 45.5 0 35.3172 0 22.75C0 10.1828 10.1828 0 22.75 0C35.3172 0 45.5 10.1828 45.5 22.75ZM22.75 38.5C24.8183 38.5 26.8664 38.0926 28.7773 37.3011C30.6881 36.5096 32.4244 35.3495 33.8869 33.8869C35.3495 32.4244 36.5096 30.6881 37.3011 28.7773C38.0926 26.8664 38.5 24.8183 38.5 22.75C38.5 20.6817 38.0926 18.6336 37.3011 16.7227C36.5096 14.8119 35.3495 13.0756 33.8869 11.6131C32.4244 10.1505 30.6881 8.99041 28.7773 8.1989C26.8664 7.40739 24.8183 7 22.75 7C20.6817 7 18.6336 7.40739 16.7227 8.1989C14.8119 8.99041 13.0756 10.1505 11.6131 11.6131C10.1505 13.0756 8.99041 14.8119 8.1989 16.7227C7.40739 18.6336 7 20.6817 7 22.75C7 24.8183 7.40739 26.8664 8.1989 28.7773C8.99041 30.6881 10.1505 32.4244 11.6131 33.8869C13.0756 35.3495 14.8119 36.5096 16.7227 37.3011C18.6336 38.0926 20.6817 38.5 22.75 38.5Z" fill="white"/>
</g>
<defs>
<clipPath id="clip0_7_54">
<rect width="56" height="56" fill="white"/>
</clipPath>
</defs>
</svg>
